<?xml version="1.0" encoding="iso-8859-1"?>
<!-- Generator: Adobe Illustrator 19.0.0, SVG Export Plug-In . SVG Version: 6.00 Build 0)  -->
<svg version="1.1" id="Capa_1" xmlns="http://www.w3.org/2000/svg" xmlns:xlink="http://www.w3.org/1999/xlink" x="0px" y="0px"
	 viewBox="0 0 448 448" style="enable-background:new 0 0 448 448;" xml:space="preserve">
<polygon style="fill:#FEEDD6;" points="336,0 104,0 104,8 104,40 24,40 24,144 104,144 104,176 104,448 216,448 264,448 312,448 
	424,448 424,88 424,80 344,0 "/>
<rect x="24" y="40" style="fill:#FAA432;" width="272" height="104"/>
<rect x="216" y="288" style="fill:#FCC884;" width="96" height="160"/>
<g>
	<path style="fill:#FFFFFF;" d="M264,448h-48v-48C242.48,400,264,421.52,264,448z"/>
	<path style="fill:#FFFFFF;" d="M216,336v-48h48C264,314.48,242.48,336,216,336z"/>
</g>
<polygon style="fill:#FCC884;" points="344,0 336,0 336,88 424,88 424,80 "/>
<g>
	<polygon style="fill:#FFFFFF;" points="309.784,264 291.576,264 288,258.128 264,216.128 245.784,248 264,248.056 268.568,248.064 
		278.128,264 218.216,264 264,183.872 	"/>
	<path style="fill:#FFFFFF;" d="M280,384c-8.824,0-16-7.176-16-16s7.176-16,16-16s16,7.176,16,16S288.824,384,280,384z M280,367.984
		V368V367.984z"/>
	<path style="fill:#FFFFFF;" d="M255.632,422.808l-8-13.856C248.6,408.376,272,394.336,272,368
		c0-26.576-24.128-40.816-24.368-40.952l8-13.856C256.952,313.952,288,332.288,288,368S256.952,422.04,255.632,422.808z"/>
	<rect x="48" y="104" style="fill:#FFFFFF;" width="16" height="16"/>
	<path style="fill:#FFFFFF;" d="M106,64.768l-0.176-0.6H87.256l-16.664,54.72l-0.328,1.088H86.72l2.664-11.496h13.824l2.664,11.496
		h16.952L106,64.768z M100.208,95.72H92.36l0.656-2.696c1.112-4.288,2.224-9.552,3.224-14.28c0.368,1.6,0.744,3.256,1.112,4.912
		c0.72,3.208,1.472,6.52,2.2,9.352L100.208,95.72z"/>
	<rect x="125.968" y="64.16" style="fill:#FFFFFF;" width="16" height="55.808"/>
</g>
<g>
	<rect x="336" y="328" style="fill:#FDDBAD;" width="40" height="16"/>
	<rect x="352" y="360" style="fill:#FDDBAD;" width="16" height="16"/>
	<rect x="384" y="360" style="fill:#FDDBAD;" width="16" height="16"/>
	<rect x="336" y="392" style="fill:#FDDBAD;" width="56" height="16"/>
	<rect x="152" y="360" style="fill:#FDDBAD;" width="40" height="16"/>
	<rect x="160" y="328" style="fill:#FDDBAD;" width="16" height="16"/>
	<rect x="128" y="328" style="fill:#FDDBAD;" width="16" height="16"/>
	<rect x="136" y="296" style="fill:#FDDBAD;" width="56" height="16"/>
	<rect x="320" y="216" style="fill:#FDDBAD;" width="56" height="16"/>
	<rect x="152" y="216" style="fill:#FDDBAD;" width="56" height="16"/>
	<rect x="344" y="248" style="fill:#FDDBAD;" width="16" height="16"/>
	<rect x="376" y="248" style="fill:#FDDBAD;" width="24" height="16"/>
	<rect x="128" y="248" style="fill:#FDDBAD;" width="16" height="16"/>
	<rect x="160" y="248" style="fill:#FDDBAD;" width="24" height="16"/>
</g>
<g>
</g>
<g>
</g>
<g>
</g>
<g>
</g>
<g>
</g>
<g>
</g>
<g>
</g>
<g>
</g>
<g>
</g>
<g>
</g>
<g>
</g>
<g>
</g>
<g>
</g>
<g>
</g>
<g>
</g>
</svg>
