<svg width="28" height="18" viewBox="0 0 28 18" fill="none" xmlns="http://www.w3.org/2000/svg">
<g clip-path="url(#clip0)">
<path d="M7.35872 5.28906C7.62639 4.9375 7.81757 4.46875 7.76022 4C7.35872 4.01953 6.88075 4.27344 6.59397 4.60547C6.34543 4.89844 6.116 5.38672 6.17336 5.83594C6.63221 5.89453 7.07194 5.64062 7.35872 5.28906ZM7.76022 5.95312C7.11018 5.91406 6.55574 6.32422 6.24984 6.32422C5.94394 6.32422 5.46597 5.97266 4.94976 5.97266C4.28061 5.99219 3.66881 6.36328 3.32467 6.98828C2.63639 8.21875 3.13348 10.0352 3.82176 11.0312C4.14677 11.5195 4.54827 12.0664 5.06447 12.0469C5.56156 12.0273 5.75275 11.7148 6.34543 11.7148C6.93811 11.7148 7.11018 12.0469 7.6455 12.0273C8.18083 12.0078 8.52497 11.5391 8.84999 11.0312C9.23236 10.4648 9.38531 9.91797 9.38531 9.89844C9.36619 9.87891 8.33378 9.48828 8.33378 8.27734C8.31466 7.26172 9.13677 6.77344 9.175 6.75391C8.73527 6.05078 8.00876 5.97266 7.76022 5.95312Z" fill="#5F6368"/>
<path d="M13.3814 4.56641C14.7962 4.56641 15.7712 5.5625 15.7712 6.98828C15.7712 8.43359 14.777 9.42969 13.3431 9.42969H11.7945V11.9492H10.6665V4.56641H13.3814ZM11.7945 8.47266H13.0755C14.0505 8.47266 14.605 7.92578 14.605 7.00781C14.605 6.07031 14.0505 5.54297 13.0755 5.54297H11.7754V8.47266H11.7945ZM16.058 10.4453C16.058 9.50781 16.7654 8.92188 18.0272 8.84375L19.4803 8.76562V8.35547C19.4803 7.75 19.0788 7.39844 18.4287 7.39844C17.7978 7.39844 17.4154 7.71094 17.3198 8.17969H16.2874C16.3448 7.20312 17.1669 6.48047 18.467 6.48047C19.7479 6.48047 20.57 7.16406 20.57 8.25781V11.9687H19.5376V11.0898H19.5185C19.2126 11.6953 18.5434 12.0664 17.8552 12.0664C16.7845 12.0664 16.058 11.4023 16.058 10.4453ZM19.4803 9.95703V9.52734L18.1802 9.60547C17.5301 9.64453 17.1669 9.9375 17.1669 10.4062C17.1669 10.875 17.5493 11.1875 18.1228 11.1875C18.8876 11.1875 19.4803 10.6602 19.4803 9.95703ZM21.526 13.9609V13.0625C21.6024 13.082 21.7936 13.082 21.8701 13.082C22.3672 13.082 22.6348 12.8672 22.8069 12.3203C22.8069 12.3008 22.9025 11.9883 22.9025 11.9883L20.9906 6.59766H22.1569L23.4952 10.9922H23.5143L24.8526 6.59766H25.9998L24.0305 12.2812C23.5717 13.5898 23.0555 14 21.9657 14C21.8892 13.9805 21.6216 13.9805 21.526 13.9609Z" fill="#5F6368"/>
</g>
<defs>
<clipPath id="clip0">
<rect width="23" height="10" fill="white" transform="translate(3 4)"/>
</clipPath>
</defs>
</svg>
