<svg width="57" height="57" viewBox="0 0 57 57" fill="none" xmlns="http://www.w3.org/2000/svg">
    <circle fill="#EC3C24" cx="28" cy="27" r="25"></circle>
    <path fill-rule="evenodd" clip-rule="evenodd" d="M11.1001 21.0001C11.1001 18.8462 12.8462 17.1001 15.0001 17.1001H41.0001C43.154 17.1001 44.9001 18.8462 44.9001 21.0001V33.7501C44.9001 35.904 43.154 37.6501 41.0001 37.6501H15.0001C12.8462 37.6501 11.1001 35.904 11.1001 33.7501V21.0001ZM12.9001 21.0001C12.9001 20.9468 12.9021 20.894 12.906 20.8417C13.012 20.9454 13.1342 21.0406 13.2732 21.1249L23.1718 27.1256L13.2732 33.1263C13.1316 33.2121 13.0075 33.3093 12.9001 33.4152V21.0001ZM43.1001 33.4153V21.0001C43.1001 20.9468 43.0981 20.894 43.0942 20.8417C42.9881 20.9454 42.866 21.0406 42.727 21.1249L32.8283 27.1256L42.727 33.1263C42.8685 33.2122 42.9927 33.3093 43.1001 33.4153ZM31.0922 28.1781L28.9851 29.4555C28.3797 29.8224 27.6205 29.8224 27.0151 29.4555L24.908 28.178L14.2063 34.6656C14.1835 34.6794 14.1734 34.6904 14.1694 34.6953C14.1651 34.7005 14.1627 34.7051 14.1608 34.7102C14.1566 34.722 14.153 34.7464 14.1618 34.778C14.1707 34.8096 14.1864 34.8286 14.1961 34.8365C14.2004 34.8399 14.2049 34.8426 14.2111 34.8448C14.2171 34.8469 14.2315 34.8511 14.2581 34.8511H41.742C41.7686 34.8511 41.783 34.8469 41.789 34.8448C41.7953 34.8426 41.7998 34.8399 41.804 34.8365C41.8137 34.8286 41.8295 34.8096 41.8383 34.778C41.8471 34.7464 41.8435 34.722 41.8393 34.7102C41.8375 34.7051 41.835 34.7005 41.8308 34.6953C41.8268 34.6904 41.8166 34.6794 41.7938 34.6656L31.0922 28.1781ZM27.9483 27.9162C27.9801 27.9355 28.0201 27.9355 28.0519 27.9162L41.7939 19.5856C41.8167 19.5718 41.8268 19.5608 41.8308 19.5559C41.835 19.5507 41.8375 19.5461 41.8393 19.541C41.8435 19.5292 41.8472 19.5048 41.8383 19.4732C41.8295 19.4416 41.8138 19.4226 41.804 19.4147C41.7998 19.4113 41.7953 19.4086 41.789 19.4064C41.7831 19.4043 41.7687 19.4001 41.742 19.4001L14.2582 19.4001C14.2315 19.4001 14.2171 19.4043 14.2112 19.4064C14.2049 19.4086 14.2004 19.4113 14.1961 19.4147C14.1864 19.4226 14.1707 19.4416 14.1619 19.4732C14.153 19.5048 14.1567 19.5292 14.1609 19.541C14.1627 19.5461 14.1652 19.5507 14.1694 19.5559C14.1734 19.5608 14.1835 19.5718 14.2063 19.5856L27.9483 27.9162Z" fill="white" stroke-linecap="round" stroke-linejoin="round"/>
</svg>
