<?xml version="1.0" encoding="iso-8859-1"?>
<!-- Generator: Adobe Illustrator 19.0.0, SVG Export Plug-In . SVG Version: 6.00 Build 0)  -->
<svg version="1.1" id="Capa_1" xmlns="http://www.w3.org/2000/svg" xmlns:xlink="http://www.w3.org/1999/xlink" x="0px" y="0px"
	 viewBox="0 0 448 448" style="enable-background:new 0 0 448 448;" xml:space="preserve">
<polygon style="fill:#FFDC69;" points="336,0 104,0 104,8 104,40 24,40 24,144 104,144 104,176 104,448 424,448 424,88 424,80 
	344,0 "/>
<rect x="24" y="40" style="fill:#FF8C5A;" width="272" height="104"/>
<rect x="216" y="288" style="fill:#FEEC9F;" width="96" height="160"/>
<polygon style="fill:#B4EBBE;" points="272,408 312,368 312,448 "/>
<polygon style="fill:#A0D778;" points="312,448 248,384 216,416 216,448 "/>
<path style="fill:#FFFFFF;" d="M312,288v48c-26.48,0-48-21.52-48-48H312z"/>
<polygon style="fill:#FFB855;" points="344,0 336,0 336,88 424,88 424,80 "/>
<g>
	<polygon style="fill:#FFFFFF;" points="240,216 224,216 224,184 256,184 256,200 240,200 	"/>
	<polygon style="fill:#FFFFFF;" points="256,264 224,264 224,232 240,232 240,248 256,248 	"/>
	<polygon style="fill:#FFFFFF;" points="304,216 288,216 288,200 272,200 272,184 304,184 	"/>
	<polygon style="fill:#FFFFFF;" points="304,264 272,264 272,248 288,248 288,232 304,232 	"/>
	<rect x="48" y="104" style="fill:#FFFFFF;" width="16" height="16"/>
	<polygon style="fill:#FFFFFF;" points="114.032,77.84 114.032,64.168 77.376,64.168 77.376,119.968 114.856,119.968 
		114.856,106.288 93.384,106.288 93.384,98.32 111.032,98.32 111.032,84.64 93.384,84.64 93.384,77.84 	"/>
	<path style="fill:#FFFFFF;" d="M123.632,119.968h16.008v-17.16h5.816c10.376,0,22.496-5.192,22.496-19.832
		c0-12.312-7.784-18.824-22.496-18.824h-21.824L123.632,119.968L123.632,119.968z M144.792,77.168c5.248,0,7.488,1.736,7.488,5.816
		c0,4.528-2.512,6.824-7.488,6.824h-5.152V77.176h5.152V77.168z"/>
	<path style="fill:#FFFFFF;" d="M193.872,77.168c3.56,0,6.56,1.088,10.344,3.76l0.648,0.456l8.12-10.2l-0.536-0.528
		c-4.768-4.68-11.712-7.488-18.568-7.488c-11.96,0-20.984,7.592-20.984,17.664c0,7.168,4.168,12.936,11.416,15.832l6.768,2.832
		l1.168,0.464c3.896,1.544,5.616,2.296,5.616,4.008c0,0.824,0,2.984-5.312,2.984c-3.6,0-8.248-1.936-12.136-5.056l-0.64-0.512
		l-9.2,11.08l0.6,0.536c5.536,4.984,13.408,7.968,21.04,7.968c14.44,0,21.992-9.144,21.992-18.168c0-7.448-3.744-12.688-11.112-15.6
		l-7.96-3.12c-4.104-1.576-6.072-2.416-6.072-4.096C189.064,77.528,192.08,77.168,193.872,77.168z"/>
</g>
<g>
	<rect x="336" y="328" style="fill:#FEEC9F;" width="40" height="16"/>
	<rect x="352" y="360" style="fill:#FEEC9F;" width="16" height="16"/>
	<rect x="384" y="360" style="fill:#FEEC9F;" width="16" height="16"/>
	<rect x="336" y="392" style="fill:#FEEC9F;" width="56" height="16"/>
	<rect x="152" y="360" style="fill:#FEEC9F;" width="40" height="16"/>
	<rect x="160" y="328" style="fill:#FEEC9F;" width="16" height="16"/>
	<rect x="128" y="328" style="fill:#FEEC9F;" width="16" height="16"/>
	<rect x="136" y="296" style="fill:#FEEC9F;" width="56" height="16"/>
	<rect x="320" y="216" style="fill:#FEEC9F;" width="56" height="16"/>
	<rect x="152" y="216" style="fill:#FEEC9F;" width="56" height="16"/>
	<rect x="344" y="248" style="fill:#FEEC9F;" width="16" height="16"/>
	<rect x="376" y="248" style="fill:#FEEC9F;" width="24" height="16"/>
	<rect x="128" y="248" style="fill:#FEEC9F;" width="16" height="16"/>
	<rect x="160" y="248" style="fill:#FEEC9F;" width="24" height="16"/>
</g>
<g>
</g>
<g>
</g>
<g>
</g>
<g>
</g>
<g>
</g>
<g>
</g>
<g>
</g>
<g>
</g>
<g>
</g>
<g>
</g>
<g>
</g>
<g>
</g>
<g>
</g>
<g>
</g>
<g>
</g>
</svg>
