<svg width="28" height="18" viewBox="0 0 28 18" fill="none" xmlns="http://www.w3.org/2000/svg">
<g clip-path="url(#clip0)">
<path d="M13.351 9.3972V12.0345H12.4644V5.51999H14.8148C15.3818 5.50859 15.9297 5.71176 16.3368 6.08391C16.749 6.43423 16.9813 6.93549 16.9722 7.45859C16.9843 7.98549 16.752 8.49056 16.3368 8.84182C15.9257 9.21207 15.418 9.3972 14.8148 9.39625L13.351 9.3972ZM13.351 6.3222V8.59688H14.8369C15.1667 8.60638 15.4843 8.48391 15.7135 8.25986C16.179 7.83264 16.1901 7.12916 15.7367 6.68961C15.7286 6.68201 15.7216 6.67442 15.7135 6.66777C15.4874 6.43897 15.1677 6.31366 14.8369 6.3222H13.351ZM19.015 7.43201C19.6705 7.43201 20.1872 7.5972 20.5662 7.92758C20.9452 8.25796 21.1342 8.71176 21.1342 9.28707V12.0345H20.2867V11.4156H20.2485C19.8816 11.9254 19.393 12.1798 18.7838 12.1798C18.264 12.1798 17.8287 12.0345 17.4789 11.7431C17.1391 11.4725 16.9461 11.0719 16.9541 10.6513C16.9541 10.1899 17.1391 9.82347 17.508 9.551C17.877 9.27853 18.3696 9.14182 18.9869 9.14182C19.5127 9.14182 19.9469 9.23296 20.2867 9.41429V9.22252C20.2888 8.93581 20.154 8.66429 19.9208 8.48201C19.6866 8.28264 19.381 8.17347 19.0653 8.17726C18.5707 8.17726 18.1786 8.37473 17.8901 8.76872L17.1099 8.30448C17.5382 7.72252 18.1736 7.43201 19.015 7.43201ZM17.8679 10.6703C17.8669 10.8868 17.9765 11.0899 18.1615 11.2162C18.3575 11.3614 18.6008 11.4393 18.8501 11.4345C19.2241 11.4336 19.583 11.2931 19.8474 11.0434C20.141 10.7823 20.2878 10.4766 20.2878 10.1244C20.0113 9.9165 19.6263 9.81207 19.1316 9.81207C18.7717 9.81207 18.4711 9.89372 18.2309 10.058C17.9886 10.225 17.8679 10.4273 17.8679 10.6703ZM26 7.57726L23.0413 13.9997H22.1265L23.2243 11.7526L21.278 7.57726H22.2411L23.6475 10.7795H23.6666L25.0349 7.57726H26Z" fill="#5F6368"/>
<path d="M9.76903 8.8278C9.76903 8.57242 9.74691 8.31799 9.70067 8.06641H5.96289V9.50755H8.10322C8.01475 9.97274 7.72924 10.3838 7.31203 10.6449V11.581H8.58979C9.33775 10.9306 9.76903 9.96704 9.76903 8.8278Z" fill="#A4A4A4"/>
<path d="M5.9631 12.4856C7.03276 12.4856 7.93353 12.1542 8.59 11.5818L7.31224 10.6457C6.95636 10.8735 6.49894 11.0036 5.9631 11.0036C4.92963 11.0036 4.05199 10.3457 3.73833 9.45898H2.42236V10.4235C3.09492 11.6881 4.46517 12.4856 5.9631 12.4856Z" fill="#B4B4B4"/>
<path d="M3.7382 9.45965C3.57232 8.99541 3.57232 8.4913 3.7382 8.02706V7.0625H2.42223C1.85926 8.1201 1.85926 9.36661 2.42223 10.4242L3.7382 9.45965Z" fill="#CCCCCC"/>
<path d="M5.9631 6.48219C6.52809 6.47365 7.07398 6.67491 7.48314 7.04327L8.61513 5.97523C7.89734 5.33915 6.94731 4.98978 5.9631 5.00023C4.46517 5.00023 3.09492 5.79865 2.42236 7.06225L3.73833 8.02681C4.05199 7.1401 4.92963 6.48219 5.9631 6.48219Z" fill="#9E9E9E"/>
</g>
<defs>
<clipPath id="clip0">
<rect width="24" height="9" fill="white" transform="translate(2 5)"/>
</clipPath>
</defs>
</svg>
