<svg width="19" height="17" viewBox="0 0 19 17" fill="none" xmlns="http://www.w3.org/2000/svg">
<path d="M16.4983 2.65103C16.094 2.24649 15.6139 1.92558 15.0855 1.70664C14.5571 1.48769 13.9907 1.375 13.4188 1.375C12.8468 1.375 12.2804 1.48769 11.752 1.70664C11.2236 1.92558 10.7435 2.24649 10.3392 2.65103L9.50001 3.4902L8.66085 2.65103C7.84409 1.83427 6.73633 1.37542 5.58126 1.37542C4.42619 1.37542 3.31844 1.83427 2.50168 2.65103C1.68492 3.46779 1.22607 4.57554 1.22607 5.73061C1.22607 6.88568 1.68492 7.99344 2.50168 8.8102L3.34085 9.64936L9.50001 15.8085L15.6592 9.64936L16.4983 8.8102C16.9029 8.40585 17.2238 7.92576 17.4427 7.39735C17.6617 6.86895 17.7744 6.30258 17.7744 5.73061C17.7744 5.15864 17.6617 4.59228 17.4427 4.06387C17.2238 3.53547 16.9029 3.05538 16.4983 2.65103Z" fill="#FF725F" stroke="#FF725F" stroke-width="1.8" stroke-linecap="round" stroke-linejoin="round"/>
</svg>
