<?xml version="1.0" encoding="iso-8859-1"?>
<!-- Generator: Adobe Illustrator 19.0.0, SVG Export Plug-In . SVG Version: 6.00 Build 0)  -->
<svg version="1.1" id="Capa_1" xmlns="http://www.w3.org/2000/svg" xmlns:xlink="http://www.w3.org/1999/xlink" x="0px" y="0px"
	 viewBox="0 0 448 448" style="enable-background:new 0 0 448 448;" xml:space="preserve">
<polygon style="fill:#FDCCE1;" points="336,0 104,0 104,8 104,40 24,40 24,144 104,144 104,176 104,448 216,448 312,448 424,448 
	424,88 424,80 344,0 "/>
<rect x="24" y="40" style="fill:#F6016B;" width="272" height="104"/>
<g>
	<rect x="216" y="288" style="fill:#FA67A6;" width="96" height="160"/>
	<polygon style="fill:#FA67A6;" points="344,0 336,0 336,88 424,88 424,80 	"/>
</g>
<g>
	<polygon style="fill:#FFFFFF;" points="309.784,264 291.576,264 288,258.128 264,216.128 245.784,248 264,248.056 268.568,248.064 
		278.128,264 218.216,264 264,183.872 	"/>
	<rect x="240" y="312" style="fill:#FFFFFF;" width="24" height="16"/>
	<rect x="240" y="344" style="fill:#FFFFFF;" width="48" height="16"/>
	<rect x="240" y="376" style="fill:#FFFFFF;" width="48" height="16"/>
	<rect x="240" y="408" style="fill:#FFFFFF;" width="48" height="16"/>
	<rect x="48" y="104" style="fill:#FFFFFF;" width="16" height="16"/>
	<rect x="77.376" y="64.16" style="fill:#FFFFFF;" width="16" height="55.808"/>
	<path style="fill:#FFFFFF;" d="M133.288,119.968h16.016V64.16h-15.336v16.496c0,5.032,0.664,10.968,1.272,15.984l-3.336-7.856
		l-12.216-24.616h-16.016v55.808h15.336v-16.504c0-5.112-0.68-10.92-1.296-16.072l3.368,7.864L133.288,119.968z"/>
	<path style="fill:#FFFFFF;" d="M205.048,91.816c0-18.088-9.904-27.648-28.648-27.648h-16.824v55.808h17.656
		C194.912,119.968,205.048,109.704,205.048,91.816z M175.576,106.792V77.344c6.832,0,13.144,1.76,13.144,14.472
		C188.712,105.088,181.696,106.792,175.576,106.792z"/>
	<path style="fill:#FFFFFF;" d="M258.464,91.816c0-18.088-9.904-27.648-28.648-27.648h-16.824v55.808h17.656
		C248.328,119.968,258.464,109.704,258.464,91.816z M228.992,106.792V77.344c6.832,0,13.144,1.76,13.144,14.472
		C242.128,105.088,235.112,106.792,228.992,106.792z"/>
</g>
<g>
	<rect x="336" y="328" style="fill:#FB99C4;" width="40" height="16"/>
	<rect x="352" y="360" style="fill:#FB99C4;" width="16" height="16"/>
	<rect x="384" y="360" style="fill:#FB99C4;" width="16" height="16"/>
	<rect x="336" y="392" style="fill:#FB99C4;" width="56" height="16"/>
	<rect x="152" y="360" style="fill:#FB99C4;" width="40" height="16"/>
	<rect x="160" y="328" style="fill:#FB99C4;" width="16" height="16"/>
	<rect x="128" y="328" style="fill:#FB99C4;" width="16" height="16"/>
	<rect x="136" y="296" style="fill:#FB99C4;" width="56" height="16"/>
	<rect x="320" y="216" style="fill:#FB99C4;" width="56" height="16"/>
	<rect x="152" y="216" style="fill:#FB99C4;" width="56" height="16"/>
	<rect x="344" y="248" style="fill:#FB99C4;" width="16" height="16"/>
	<rect x="376" y="248" style="fill:#FB99C4;" width="24" height="16"/>
	<rect x="128" y="248" style="fill:#FB99C4;" width="16" height="16"/>
	<rect x="160" y="248" style="fill:#FB99C4;" width="24" height="16"/>
</g>
<g>
</g>
<g>
</g>
<g>
</g>
<g>
</g>
<g>
</g>
<g>
</g>
<g>
</g>
<g>
</g>
<g>
</g>
<g>
</g>
<g>
</g>
<g>
</g>
<g>
</g>
<g>
</g>
<g>
</g>
</svg>
