<svg width="28" height="18" viewBox="0 0 28 18" fill="none" xmlns="http://www.w3.org/2000/svg">
<path d="M18.1796 2.16794C17.5264 1.37918 16.3457 1.04102 14.8353 1.04102H10.4515C10.3021 1.04102 10.1575 1.09751 10.0439 1.20033C9.93024 1.30314 9.85494 1.44554 9.83151 1.60192L8.0062 13.8673C7.96992 14.1092 8.14669 14.3282 8.37806 14.3282H11.0844L11.7641 9.76054L11.743 9.90357C11.7915 9.5807 12.0521 9.34256 12.3607 9.34256H13.6468C16.1732 9.34256 18.1515 8.25532 18.7294 5.11014C18.7465 5.01712 18.7614 4.92658 18.7742 4.83813C18.7013 4.79721 18.7013 4.79721 18.7742 4.83813C18.9463 3.67564 18.7731 2.88435 18.1796 2.16794Z" fill="#7E7E7E"/>
<path d="M12.7997 4.41936C12.8737 4.38204 12.9546 4.36269 13.0365 4.36275H16.4733C16.8803 4.36275 17.2599 4.39081 17.6068 4.44996C17.7038 4.46635 17.8004 4.48593 17.8963 4.50866C18.0323 4.54044 18.1666 4.57935 18.299 4.62522C18.4695 4.68556 18.6283 4.75584 18.7743 4.83813C18.9463 3.6752 18.7731 2.88435 18.1796 2.16794C17.526 1.37918 16.3457 1.04102 14.8353 1.04102H10.4512C10.1425 1.04102 9.87989 1.27911 9.83151 1.60192L8.0062 13.8669C7.96992 14.1091 8.14669 14.3278 8.37769 14.3278H11.0844L12.4946 4.85343C12.5084 4.7603 12.5435 4.67214 12.5966 4.59653C12.6498 4.52092 12.7194 4.46012 12.7997 4.41936Z" fill="#7E7E7E"/>
<path d="M18.7295 5.1099C18.1517 8.25463 16.1734 9.34232 13.6469 9.34232H12.3605C12.0519 9.34232 11.7912 9.58046 11.7432 9.90332L10.8977 15.5827C10.8661 15.7943 11.0206 15.9861 11.2227 15.9861H13.5041C13.6348 15.9861 13.7612 15.9367 13.8605 15.8467C13.9599 15.7568 14.0257 15.6322 14.0461 15.4954L14.0683 15.3723L14.4983 12.485L14.526 12.3254C14.5464 12.1887 14.6122 12.0641 14.7116 11.9742C14.8109 11.8842 14.9373 11.8348 15.068 11.8348H15.4094C17.6194 11.8348 19.3499 10.8835 19.8556 8.1323C20.0667 6.98258 19.9575 6.02268 19.3991 5.34844C19.2297 5.14422 19.0194 4.97556 18.7744 4.83789C18.7611 4.92679 18.7467 5.01688 18.7295 5.1099Z" fill="#AFAFAF"/>
<path d="M18.1697 4.58324C18.0796 4.55537 17.9886 4.53069 17.897 4.50925C17.801 4.48689 17.7045 4.46745 17.6074 4.45094C17.2602 4.39139 16.8809 4.36328 16.4735 4.36328H13.0372C12.9552 4.36309 12.8742 4.3826 12.8003 4.42035C12.72 4.46097 12.6502 4.52174 12.597 4.59737C12.5439 4.673 12.5089 4.76123 12.4952 4.85441L11.7647 9.76111L11.7437 9.90415C11.7917 9.58128 12.0523 9.34314 12.361 9.34314H13.6474C16.1739 9.34314 18.1521 8.2559 18.73 5.11073C18.7472 5.01771 18.7616 4.92757 18.7749 4.83872C18.6286 4.75687 18.4702 4.68615 18.2996 4.6262C18.2565 4.61109 18.2133 4.59676 18.1697 4.58324" fill="#444444"/>
</svg>
