<svg width="15" height="15" viewBox="0 0 15 15" fill="none" xmlns="http://www.w3.org/2000/svg">
<path d="M10.6291 1.24758C10.803 1.07373 11.0094 0.93582 11.2365 0.841733C11.4637 0.747645 11.7071 0.699219 11.953 0.699219C12.1988 0.699219 12.4423 0.747645 12.6694 0.841733C12.8966 0.93582 13.103 1.07373 13.2768 1.24758C13.4507 1.42143 13.5886 1.62782 13.6827 1.85497C13.7768 2.08212 13.8252 2.32557 13.8252 2.57143C13.8252 2.8173 13.7768 3.06075 13.6827 3.2879C13.5886 3.51505 13.4507 3.72144 13.2768 3.89529L4.3408 12.8313L0.700195 13.8242L1.69309 10.1836L10.6291 1.24758Z" stroke="#FF725F" stroke-linecap="round" stroke-linejoin="round"/>
</svg>
