<svg width="57" height="57" viewBox="0 0 57 57" fill="none" xmlns="http://www.w3.org/2000/svg">
    <circle fill="#EC3C24" cx="28" cy="27" r="25"></circle>
    <path d="M39.0263 31.4605C37.4842 31.4605 35.9737 31.2197 34.5421 30.7474C33.8434 30.5066 33.05 30.6921 32.5908 31.1605L29.7526 33.304C26.4961 31.5658 24.4118 29.4829 22.6974 26.25L24.7829 23.479C25.3079 22.954 25.4961 22.1855 25.2711 21.4658C24.7947 20.025 24.5527 18.5132 24.5527 16.9737C24.5527 15.8855 23.6672 15 22.579 15H17.9737C16.8855 15 16 15.8855 16 16.9737C16 29.6697 26.3303 40 39.0263 40C40.1145 40 41 39.1145 41 38.0263V33.4342C41 32.346 40.1145 31.4605 39.0263 31.4605Z" stroke="white" stroke-width="1.8" stroke-linecap="round" stroke-linejoin="round"/>
</svg>
