<?xml version="1.0" encoding="iso-8859-1"?>
<!-- Generator: Adobe Illustrator 19.0.0, SVG Export Plug-In . SVG Version: 6.00 Build 0)  -->
<svg version="1.1" id="Capa_1" xmlns="http://www.w3.org/2000/svg" xmlns:xlink="http://www.w3.org/1999/xlink" x="0px" y="0px"
	 viewBox="0 0 448 448" style="enable-background:new 0 0 448 448;" xml:space="preserve">
<polygon style="fill:#FFDC69;" points="336,0 104,0 104,8 104,40 24,40 24,144 104,144 104,176 104,448 424,448 424,88 424,80 
	344,0 "/>
<rect x="24" y="40" style="fill:#FF8C5A;" width="272" height="104"/>
<rect x="216" y="288" style="fill:#FEEC9F;" width="96" height="160"/>
<polygon style="fill:#B4EBBE;" points="272,408 312,368 312,448 "/>
<polygon style="fill:#A0D778;" points="312,448 248,384 216,416 216,448 "/>
<path style="fill:#FFFFFF;" d="M312,288v48c-26.4,0-48-21.6-48-48H312z"/>
<polygon style="fill:#FFB855;" points="344,0 336,0 336,88 424,88 424,80 "/>
<g>
	<polygon style="fill:#FFFFFF;" points="240,216 224,216 224,184 256,184 256,200 240,200 	"/>
	<polygon style="fill:#FFFFFF;" points="256,264 224,264 224,232 240,232 240,248 256,248 	"/>
	<polygon style="fill:#FFFFFF;" points="304,216 288,216 288,200 272,200 272,184 304,184 	"/>
	<polygon style="fill:#FFFFFF;" points="304,264 272,264 272,248 288,248 288,232 304,232 	"/>
</g>
<g>
	<rect x="336" y="328" style="fill:#FEEC9F;" width="40" height="16"/>
	<rect x="352" y="360" style="fill:#FEEC9F;" width="16" height="16"/>
	<rect x="384" y="360" style="fill:#FEEC9F;" width="16" height="16"/>
	<rect x="336" y="392" style="fill:#FEEC9F;" width="56" height="16"/>
	<rect x="152" y="360" style="fill:#FEEC9F;" width="40" height="16"/>
	<rect x="160" y="328" style="fill:#FEEC9F;" width="16" height="16"/>
	<rect x="128" y="328" style="fill:#FEEC9F;" width="16" height="16"/>
	<rect x="136" y="296" style="fill:#FEEC9F;" width="56" height="16"/>
	<rect x="320" y="216" style="fill:#FEEC9F;" width="56" height="16"/>
	<rect x="152" y="216" style="fill:#FEEC9F;" width="56" height="16"/>
	<rect x="344" y="248" style="fill:#FEEC9F;" width="16" height="16"/>
	<rect x="376" y="248" style="fill:#FEEC9F;" width="24" height="16"/>
	<rect x="128" y="248" style="fill:#FEEC9F;" width="16" height="16"/>
	<rect x="160" y="248" style="fill:#FEEC9F;" width="24" height="16"/>
</g>
<g>
	<rect x="68.8" y="104" style="fill:#FFFFFF;" width="16" height="16"/>
	<path style="fill:#FFFFFF;" d="M98.4,120h16v-16.8h5.6c10.4,0,22.4-4.8,22.4-20c0-12-8-19.2-22.4-19.2H98.4V120z M120,76.8
		c5.6,0,7.2,1.6,7.2,5.6c0,4.8-2.4,7.2-7.2,7.2h-4.8V76.8L120,76.8L120,76.8z"/>
	<path style="fill:#FFFFFF;" d="M179.2,120h16V64H180v16.8c0,4.8,0.8,11.2,1.6,16l-3.2-8L165.6,64h-16v56h15.2v-16.8
		c0-4.8-0.8-11.2-1.6-16l3.2,8L179.2,120z"/>
	<path style="fill:#FFFFFF;" d="M231.2,120.8c8,0,15.2-3.2,19.2-7.2l0,0V86.4H228V100h8v6.4c-0.8,0-2.4,0.8-3.2,0.8
		c-8.8,0-13.6-4.8-13.6-15.2c0-8.8,4.8-15.2,12-15.2c4,0,6.4,1.6,8.8,3.2l0.8,0.8l8.8-10.4l-0.8-0.8c-4.8-4.8-11.2-7.2-17.6-7.2
		c-16.8,0-28,12-28,29.6C203.2,109.6,214.4,120.8,231.2,120.8z"/>
</g>
<g>
</g>
<g>
</g>
<g>
</g>
<g>
</g>
<g>
</g>
<g>
</g>
<g>
</g>
<g>
</g>
<g>
</g>
<g>
</g>
<g>
</g>
<g>
</g>
<g>
</g>
<g>
</g>
<g>
</g>
</svg>
