<svg width="22" height="22" viewBox="0 0 22 22" fill="none" xmlns="http://www.w3.org/2000/svg">
    <path d="M8.25016 20.1673C8.75642 20.1673 9.16683 19.7569 9.16683 19.2507C9.16683 18.7444 8.75642 18.334 8.25016 18.334C7.7439 18.334 7.3335 18.7444 7.3335 19.2507C7.3335 19.7569 7.7439 20.1673 8.25016 20.1673Z"
         />
    <path d="M18.3332 20.1673C18.8394 20.1673 19.2498 19.7569 19.2498 19.2507C19.2498 18.7444 18.8394 18.334 18.3332 18.334C17.8269 18.334 17.4165 18.7444 17.4165 19.2507C17.4165 19.7569 17.8269 20.1673 18.3332 20.1673Z"
         />
    <path d="M0.916504 0.916016H4.58317L7.03984 13.1902C7.12366 13.6122 7.35325 13.9913 7.68842 14.2611C8.02359 14.5309 8.44298 14.6743 8.87317 14.666H17.7832C18.2134 14.6743 18.6328 14.5309 18.9679 14.2611C19.3031 13.9913 19.5327 13.6122 19.6165 13.1902L21.0832 5.49935H5.49984"
         />
</svg>
