<svg width="17" height="16" viewBox="0 0 17 16" fill="none" xmlns="http://www.w3.org/2000/svg">
<path d="M8.11775 0.266679C8.29994 -0.088894 8.79448 -0.0888926 8.97667 0.266681L11.1073 4.42487C11.1775 4.56199 11.3056 4.65779 11.4539 4.68423L15.9529 5.48579C16.3376 5.55433 16.4904 6.03865 16.2183 6.32695L13.0361 9.69841C12.9312 9.80959 12.8823 9.9646 12.9037 10.1181L13.5536 14.7716C13.6092 15.1696 13.2091 15.4689 12.8587 15.2915L8.76147 13.217C8.62635 13.1486 8.46807 13.1486 8.33295 13.217L4.23568 15.2915C3.88531 15.4689 3.48522 15.1696 3.54079 14.7716L4.19071 10.1181C4.21214 9.9646 4.16323 9.80959 4.05829 9.69841L0.876119 6.32695C0.604006 6.03865 0.756829 5.55433 1.14154 5.48579L5.64049 4.68423C5.78885 4.65779 5.9169 4.56199 5.98716 4.42487L8.11775 0.266679Z" fill="#FFD78A"/>
</svg>
