<svg width="16" height="16" viewBox="0 0 16 16" fill="none" xmlns="http://www.w3.org/2000/svg">
<path d="M7.59822 0.266679C7.78041 -0.088894 8.27496 -0.0888926 8.45715 0.266681L10.5877 4.42487C10.658 4.56199 10.7861 4.65779 10.9344 4.68423L15.4334 5.48579C15.8181 5.55433 15.9709 6.03865 15.6988 6.32695L12.5166 9.69841C12.4117 9.80959 12.3628 9.9646 12.3842 10.1181L13.0341 14.7716C13.0897 15.1696 12.6896 15.4689 12.3392 15.2915L8.24194 13.217C8.10683 13.1486 7.94854 13.1486 7.81343 13.217L3.71615 15.2915C3.36579 15.4689 2.96569 15.1696 3.02126 14.7716L3.67118 10.1181C3.69261 9.9646 3.6437 9.80959 3.53876 9.69841L0.356588 6.32695C0.0844746 6.03865 0.237297 5.55433 0.62201 5.48579L5.12096 4.68423C5.26932 4.65779 5.39738 4.56199 5.46764 4.42487L7.59822 0.266679Z" fill="#EEF5F7"/>
</svg>
