<svg width="12" height="11" viewBox="0 0 12 11" fill="none" xmlns="http://www.w3.org/2000/svg">
<path d="M5.71634 0.537825C5.83672 0.309666 6.16348 0.309666 6.28386 0.537825L7.6916 3.206C7.73802 3.29398 7.82264 3.35546 7.92066 3.37242L10.8933 3.88675C11.1475 3.93073 11.2484 4.2415 11.0686 4.4265L8.96607 6.58985C8.89673 6.66119 8.86442 6.76066 8.87858 6.85913L9.308 9.84517C9.34472 10.1005 9.08036 10.2926 8.84887 10.1788L6.14166 8.84761C6.05239 8.80371 5.9478 8.80371 5.85853 8.84761L3.15133 10.1788C2.91983 10.2926 2.65548 10.1005 2.6922 9.84517L3.12162 6.85913C3.13578 6.76066 3.10346 6.66119 3.03413 6.58985L0.931562 4.4265C0.751768 4.2415 0.852744 3.93073 1.10694 3.88675L4.07953 3.37242C4.17756 3.35546 4.26217 3.29398 4.30859 3.206L5.71634 0.537825Z" fill="#FFD78A"/>
</svg>
