<?xml version="1.0" encoding="iso-8859-1"?>
<!-- Generator: Adobe Illustrator 19.0.0, SVG Export Plug-In . SVG Version: 6.00 Build 0)  -->
<svg version="1.1" id="Capa_1" xmlns="http://www.w3.org/2000/svg" xmlns:xlink="http://www.w3.org/1999/xlink" x="0px" y="0px"
	 viewBox="0 0 448 448" style="enable-background:new 0 0 448 448;" xml:space="preserve">
<polygon style="fill:#FFDC69;" points="336,0 104,0 104,8 104,40 24,40 24,144 104,144 104,176 104,448 424,448 424,88 424,80 
	344,0 "/>
<rect x="24" y="40" style="fill:#FF8C5A;" width="272" height="104"/>
<rect x="216" y="288" style="fill:#FEEC9F;" width="96" height="160"/>
<polygon style="fill:#B4EBBE;" points="272,408 312,368 312,448 "/>
<polygon style="fill:#A0D778;" points="312,448 248,384 216,416 216,448 "/>
<path style="fill:#FFFFFF;" d="M312,288v48c-26.48,0-48-21.52-48-48H312z"/>
<polygon style="fill:#FFB855;" points="344,0 336,0 336,88 424,88 424,80 "/>
<g>
	<polygon style="fill:#FFFFFF;" points="240,216 224,216 224,184 256,184 256,200 240,200 	"/>
	<polygon style="fill:#FFFFFF;" points="256,264 224,264 224,232 240,232 240,248 256,248 	"/>
	<polygon style="fill:#FFFFFF;" points="304,216 288,216 288,200 272,200 272,184 304,184 	"/>
	<polygon style="fill:#FFFFFF;" points="304,264 272,264 272,248 288,248 288,232 304,232 	"/>
	<rect x="48" y="104" style="fill:#FFFFFF;" width="16" height="16"/>
	<path style="fill:#FFFFFF;" d="M95.696,106.952c-3.6,0-8.248-1.936-12.128-5.056l-0.648-0.512l-9.2,11.08l0.6,0.536
		c5.536,4.984,13.4,7.968,21.04,7.968c14.432,0,21.984-9.144,21.984-18.168c0-7.448-3.736-12.688-11.104-15.6l-7.96-3.12
		c-4.104-1.576-6.072-2.416-6.072-4.096c0-2.464,3.016-2.824,4.824-2.824c3.56,0,6.552,1.088,10.336,3.76l0.648,0.456l8.128-10.2
		l-0.536-0.528c-4.776-4.68-11.712-7.488-18.576-7.488c-11.968,0-20.984,7.592-20.984,17.664c0,7.168,4.168,12.936,11.416,15.832
		l6.76,2.832L95.4,99.96c3.896,1.536,5.624,2.296,5.624,4C101.016,104.792,101.016,106.952,95.696,106.952z"/>
	<path style="fill:#FFFFFF;" d="M133.672,119.968h18.576l16.48-55.808H152.28l-5.648,24.288c-0.64,2.592-1.208,5.152-1.784,7.72
		c-0.496,2.216-1.008,4.504-1.56,6.808c-0.464-1.952-0.888-3.88-1.304-5.776c-0.624-2.856-1.28-5.816-2.04-8.744l-5.816-24.296
		h-16.944l16.304,55.192L133.672,119.968z"/>
	<path style="fill:#FFFFFF;" d="M197.04,77.168c4.056,0,6.216,1.208,8.768,3.456l0.632,0.544l8.904-10.032l-0.56-0.56
		c-4.776-4.784-11.144-7.416-17.912-7.416c-16.568,0-28.144,12.064-28.144,29.32c0,17.304,10.92,28.488,27.816,28.488
		c8.072,0,15.2-3.544,19.184-6.856l0.304-0.256v-27.04h-22.328v13.344h7.992v6.16c-0.816,0.4-2.056,0.64-3.32,0.64
		c-8.96,0-13.312-4.888-13.312-14.968C185.064,83.128,189.88,77.168,197.04,77.168z"/>
</g>
<g>
	<rect x="336" y="328" style="fill:#FEEC9F;" width="40" height="16"/>
	<rect x="352" y="360" style="fill:#FEEC9F;" width="16" height="16"/>
	<rect x="384" y="360" style="fill:#FEEC9F;" width="16" height="16"/>
	<rect x="336" y="392" style="fill:#FEEC9F;" width="56" height="16"/>
	<rect x="152" y="360" style="fill:#FEEC9F;" width="40" height="16"/>
	<rect x="160" y="328" style="fill:#FEEC9F;" width="16" height="16"/>
	<rect x="128" y="328" style="fill:#FEEC9F;" width="16" height="16"/>
	<rect x="136" y="296" style="fill:#FEEC9F;" width="56" height="16"/>
	<rect x="320" y="216" style="fill:#FEEC9F;" width="56" height="16"/>
	<rect x="152" y="216" style="fill:#FEEC9F;" width="56" height="16"/>
	<rect x="344" y="248" style="fill:#FEEC9F;" width="16" height="16"/>
	<rect x="376" y="248" style="fill:#FEEC9F;" width="24" height="16"/>
	<rect x="128" y="248" style="fill:#FEEC9F;" width="16" height="16"/>
	<rect x="160" y="248" style="fill:#FEEC9F;" width="24" height="16"/>
</g>
<g>
</g>
<g>
</g>
<g>
</g>
<g>
</g>
<g>
</g>
<g>
</g>
<g>
</g>
<g>
</g>
<g>
</g>
<g>
</g>
<g>
</g>
<g>
</g>
<g>
</g>
<g>
</g>
<g>
</g>
</svg>
