<svg width="18" height="18" viewBox="0 0 18 18" fill="none" xmlns="http://www.w3.org/2000/svg">
<path d="M5.09858 16.5H2.91351C2.52716 16.5 2.15664 16.342 1.88345 16.0607C1.61026 15.7794 1.45679 15.3978 1.45679 15V9.75C1.45679 9.35218 1.61026 8.97064 1.88345 8.68934C2.15664 8.40804 2.52716 8.25 2.91351 8.25H5.09858M10.1971 6.75V3.75C10.1971 3.15326 9.96689 2.58097 9.5571 2.15901C9.14732 1.73705 8.59154 1.5 8.01202 1.5L5.09858 8.25V16.5H13.3145C13.6658 16.5041 14.0067 16.3773 14.2744 16.143C14.5421 15.9087 14.7185 15.5827 14.7712 15.225L15.7763 8.475C15.808 8.26002 15.7939 8.04051 15.7351 7.83169C15.6762 7.62287 15.5739 7.42972 15.4354 7.26564C15.2968 7.10155 15.1252 6.97045 14.9326 6.88141C14.7399 6.79238 14.5308 6.74754 14.3196 6.75H10.1971Z" stroke="#FF725F" stroke-linecap="round" stroke-linejoin="round"/>
</svg>
