<svg width="18" height="18" viewBox="0 0 18 18" fill="none" xmlns="http://www.w3.org/2000/svg">
<path d="M12.6144 1.50027H14.5591C14.9714 1.49276 15.3719 1.64137 15.6848 1.91788C15.9976 2.1944 16.201 2.57957 16.2562 3.00027V8.25027C16.201 8.67098 15.9976 9.05614 15.6848 9.33266C15.3719 9.60917 14.9714 9.75778 14.5591 9.75027H12.6144M7.5159 11.2503V14.2503C7.5159 14.847 7.74611 15.4193 8.15589 15.8413C8.56567 16.2632 9.12146 16.5003 9.70098 16.5003L12.6144 9.75027V1.50027H4.39852C4.04721 1.49618 3.7063 1.62297 3.43861 1.85727C3.17092 2.09157 2.99448 2.41759 2.9418 2.77527L1.93666 9.52527C1.90497 9.74025 1.91905 9.95976 1.97793 10.1686C2.03681 10.3774 2.13907 10.5705 2.27764 10.7346C2.4162 10.8987 2.58776 11.0298 2.78041 11.1189C2.97307 11.2079 3.18222 11.2527 3.39338 11.2503H7.5159Z" stroke="#CDDDE2" stroke-linecap="round" stroke-linejoin="round"/>
</svg>
