<svg width="19" height="19" viewBox="0 0 19 19" fill="none" xmlns="http://www.w3.org/2000/svg">
<path fill-rule="evenodd" clip-rule="evenodd" d="M1.90088 4.56185C1.90088 4.35187 2.0711 4.18164 2.28109 4.18164H15.9686C16.1786 4.18164 16.3488 4.35187 16.3488 4.56185C16.3488 4.77183 16.1786 4.94206 15.9686 4.94206H2.28109C2.0711 4.94206 1.90088 4.77183 1.90088 4.56185Z" fill="#9BAAAE"/>
<path fill-rule="evenodd" clip-rule="evenodd" d="M7.60417 1.90104C7.30165 1.90104 7.01153 2.02121 6.79762 2.23512C6.58371 2.44903 6.46354 2.73915 6.46354 3.04167V4.18229H11.7865V3.04167C11.7865 2.73915 11.6663 2.44903 11.4524 2.23512C11.2385 2.02121 10.9483 1.90104 10.6458 1.90104H7.60417ZM12.5469 4.18229V3.04167C12.5469 2.53748 12.3466 2.05394 11.9901 1.69743C11.6336 1.34091 11.15 1.14062 10.6458 1.14062H7.60417C7.09998 1.14062 6.61644 1.34091 6.25993 1.69743C5.90341 2.05394 5.70312 2.53748 5.70312 3.04167V4.18229H3.80208C3.5921 4.18229 3.42188 4.35252 3.42188 4.5625V15.2083C3.42188 15.7125 3.62216 16.1961 3.97868 16.5526C4.33519 16.9091 4.81873 17.1094 5.32292 17.1094H12.9271C13.4313 17.1094 13.9148 16.9091 14.2713 16.5526C14.6278 16.1961 14.8281 15.7125 14.8281 15.2083V4.5625C14.8281 4.35252 14.6579 4.18229 14.4479 4.18229H12.5469ZM4.18229 4.94271V15.2083C4.18229 15.5108 4.30246 15.801 4.51637 16.0149C4.73028 16.2288 5.0204 16.349 5.32292 16.349H12.9271C13.2296 16.349 13.5197 16.2288 13.7336 16.0149C13.9475 15.801 14.0677 15.5108 14.0677 15.2083V4.94271H4.18229Z" fill="#9BAAAE"/>
<path fill-rule="evenodd" clip-rule="evenodd" d="M7.604 7.86523C7.88015 7.86523 8.104 8.08909 8.104 8.36523V12.9277C8.104 13.2039 7.88015 13.4277 7.604 13.4277C7.32786 13.4277 7.104 13.2039 7.104 12.9277V8.36523C7.104 8.08909 7.32786 7.86523 7.604 7.86523Z" fill="#9BAAAE"/>
<path fill-rule="evenodd" clip-rule="evenodd" d="M10.646 7.86523C10.9221 7.86523 11.146 8.08909 11.146 8.36523V12.9277C11.146 13.2039 10.9221 13.4277 10.646 13.4277C10.3699 13.4277 10.146 13.2039 10.146 12.9277V8.36523C10.146 8.08909 10.3699 7.86523 10.646 7.86523Z" fill="#9BAAAE"/>
</svg>
